/* XPM */
static char *db945dedf0db4ff9d05e699431c3541eEjOV9gzYHZFIyfPh[] = {
/* columns rows colors chars-per-pixel */
"80 71 122 2 ",
"   c None",
".  c #EF0D0C",
"X  c #EF0E0D",
"o  c #EF0F0D",
"O  c #ED0F0F",
"+  c #EF0E0E",
"@  c #EF0F0E",
"#  c #EF0E0F",
"$  c #EE0F0F",
"%  c #EF0F0F",
"&  c #F70504",
"*  c #F70505",
"=  c #F70605",
"-  c #F50706",
";  c #F50707",
":  c #F60606",
">  c #F70606",
",  c #F60706",
"<  c #F70706",
"1  c #F60707",
"2  c #FB0101",
"3  c #FB0200",
"4  c #FA0201",
"5  c #FB0201",
"6  c #FB0102",
"7  c #F80302",
"8  c #F90303",
"9  c #FA0202",
"0  c #FB0202",
"q  c #FA0302",
"w  c #FA0203",
"e  c #FA0303",
"r  c #FB0303",
"t  c #FD0000",
"y  c #FC0100",
"u  c #FD0100",
"i  c #FD0001",
"p  c #FC0101",
"a  c #FD0101",
"s  c #FE0000",
"d  c #FE0001",
"f  c #FC0102",
"g  c #FC0202",
"h  c #F80403",
"j  c #F90403",
"k  c #F90304",
"l  c #FA0304",
"z  c #F80404",
"x  c #F90404",
"c  c #F80504",
"v  c #F80405",
"b  c #F80505",
"n  c #F90505",
"m  c #FA0404",
"M  c #F80605",
"N  c #F80506",
"B  c #F90506",
"V  c #F80606",
"C  c #F50807",
"Z  c #F60608",
"A  c #F60708",
"S  c #F20A09",
"D  c #F30A09",
"F  c #F30B09",
"G  c #F10B0A",
"H  c #F10A0B",
"J  c #F00B0B",
"K  c #F10B0B",
"L  c #F20A0A",
"P  c #F30A0A",
"I  c #F20B0A",
"U  c #F20A0B",
"Y  c #F20B0B",
"T  c #F50808",
"R  c #F40908",
"E  c #F40809",
"W  c #F50909",
"Q  c #F60808",
"!  c #F40A0A",
"~  c #F50A0A",
"^  c #F40B0A",
"/  c #F00C0A",
"(  c #F10C0A",
")  c #F00C0B",
"_  c #F40C0B",
"`  c #F30B0C",
"'  c #F10C0C",
"]  c #F00D0D",
"[  c #F10D0D",
"{  c #F20D0C",
"}  c #F20D0D",
"|  c #F10D0E",
" . c #F00E0E",
".. c #F10E0E",
"X. c #F00E0F",
"o. c #EE100F",
"O. c #F1100F",
"+. c #EE0E10",
"@. c #F00F10",
"#. c #E71716",
"$. c #E71717",
"%. c #EE1110",
"&. c #EF1211",
"*. c #EE1112",
"=. c #EC1213",
"-. c #EF1114",
";. c #E81616",
":. c #E81716",
">. c #E81717",
",. c #ED1515",
"<. c #EE1514",
"1. c #EF1515",
"2. c #EE1517",
"3. c #E81817",
"4. c #EB161A",
"5. c #E31B1A",
"6. c #E71818",
"7. c #E31A1C",
"8. c #F01010",
"9. c #F01111",
"0. c #F01212",
"q. c #F01213",
/* pixels */
"                                                                                                                                                                ",
"                                                                                                                                                                ",
"                                                                                                                                                                ",
"                                                                                                                                                                ",
"                                                                              S S                                                                               ",
"                                                                              M 5                                                                               ",
"                                                                            - s s -                                                                             ",
"                                                                          o.5 s s 5 X                                                                           ",
"                                                                          - s s s s -                                                                           ",
"                                                                        ` s s s s s s [                                                                         ",
"                                                                        5 s s s s s s M                                                                         ",
"                                                                      S s s s s s s s s S                                                                       ",
"                                                                    ,.5 s s s s s s s s 5 4.                                                                    ",
"                                                                    Q s s s s s s s s s s Q                                                                     ",
"                                                                  X s s s s s s s s s s s s X                                                                   ",
"                                                                  M s s s s s s s s s s s s M                                                                   ",
"                                                                [ s s s s s s s s s s s s s s [                                                                 ",
"                                                                M s s s s s s s s s s s s s s l                                                                 ",
"                                                              S s s s s s s s s s s s s s s s s Q                                                               ",
"                                                            %.5 s s s s s s s s s s s s s s s s 5 %.                                                            ",
"                                                            A s s s s s s s s s s s s s s s s s s -                                                             ",
"                                                          [ 5 s s s s s s s s s s s s s s s s s s 5 [                                                           ",
"                                                          M s s s s s s s s s s s s s s s s s s s s M                                                           ",
"                                                        S s s s s s s s s s s s s s s s s s s s s s s Q                                                         ",
"                                                        5 s s s s s s s s s s s s s s s s s s s s s s l                                                         ",
"                                                      Q s s s s s s s s s s s s s s s s s s s s s s s s Q                                                       ",
"                                                    @.5 s s s s s s s s s s s s s s s s s s s s s s s s 5 0.                                                    ",
"                                                    M s s s s s s s s s s s s s s s s s s s s s s s s s s M                                                     ",
"                                                  [ s s s s s s s s s s s s s s s s s s s s s s s s s s s s [                                                   ",
"                                                  M s s s s s s s s s s s s s s s s s s s s s s s s s s s s M                                                   ",
"                                                Q 5 s s s s s s s s s s s s s s s s s s s s s s s s s s s s 5 Q                                                 ",
"                                              0.5 s s s s s s s s s s s s s s s s s s s s s s s s s s s s s s 5 ,.                                              ",
"                                              C s s s s s s s s s s s s s s s s s s s s s s s s s s s s s s s s C                                               ",
"                                            0.5 s s s s s s s s s s s s s s s s s s s s s s s s s s s s s s s s 5 O.                                            ",
"                                            M s s s s s s s s s s s s s s s s s s s s s s s s s s s s s s s s s s M                                             ",
"                                          S s s s s s s s s s s s s s s s s s s s s s s s s s s s s s s s s s s s s S                                           ",
"                                          h s s s s s s s s s s s s s s s s s s s s s s s s s s s s s s s s s s s s h                                           ",
"                                        Q 5 s s s s s s s s s s s s s s s s s s s s s s s s s s s s s s s s s s s s s Q                                         ",
"                                      0.5 s s s s s s s s s s s s s s s s s s s s s s s s s s s s s s s s s s s s s s 5 0.                                      ",
"                                      M s s s s s s s s s s s s s s s s s s s s s s s s s s s s s s s s s s s s s s s s -                                       ",
"                                    [ s s s s s s s s s s s s s s s s s s s s s s s s s s s s s s s s s s s s s s s s s s [                                     ",
"                                    M s s s s s s s s s s s s s s s s s s s s s s s s s s s s s s s s s s s s s s s s s s M                                     ",
"                                  Q 5 s s s s s s s s s s s s s s s s s s s s s s s s s s s s s s s s s s s s s s s s s s 5 S                                   ",
"                                  5 s s s s s s s s s s s s s s s s s s s s s s s s s s s s s s s s s s s s s s s s s s s s 5                                   ",
"                                - s s s s s s s s s s s s s s s s s s s s s s s s s s s s s s s s s s s s s s s s s s s s s s C                                 ",
"                              %.5 s s s s s s s s s s s s s s s s s s s s s s s s s s s s s s s s s s s s s s s s s s s s s s 5 %.                              ",
"                              A s s s s s s s s s s s s s s s s s s s s s s s s s s s s s s s s s s s s s s s s s s s s s s s 5 -                               ",
"                            S 5 s s s s s s s s s s s s s s s s s s s s s s s s s s s s s s s s s s s s s s s s s s s s s s s s 5 S                             ",
"                            5 s s s s s s s s s s s s s s s s s s s s s s s s s s s s s s s s s s s s s s s s s s s s s s s s s s h                             ",
"                          S s s s s s s s s s s s s s s s s s s s s s s s s s s s s s s s s s s s s s s s s s s s s s s s s s s s s _                           ",
"                        ,.5 s s s s s s s s s s s s s s s s s s s s s s s s s s s s s s s s s s s s s s s s s s s s s s s s s s s s 5 ,.                        ",
"                        Q s s s s s s s s s s s s s s s s s s s s s s s s s s s s s s s s s s s s s s s s s s s s s s s s s s s s s s -                         ",
"                      X 5 5 s s s s s s s s s s s s s s s s s s s s s s s s s s s s s s s s s s s s s s s s s s s s s s s s s s s s s s X                       ",
"                      - s s s s s s s s s s s s s s s s s s s s s s s s s s s s s s s s s s s s s s s s s s s s s s s s s s s s s s s s -                       ",
"                    ( 5 s s s s s s s s s s s s s s s s s s s s s s s s s s s s s s s s s s s s s s s s s s s s s s s s s s s s s s s s s [                     ",
"                    5 s s s s s s s s s s s s s s s s s s s s s s s s s s s s s s s s s s s s s s s s s s s s s s s s s s s s s s s s s s l                     ",
"                  - s s s s s s s s s s s s s s s s s s s s s s s s s s s s s s s s s s s s s s s s s s s s s s s s s s s s s s s s s s s s C                   ",
"                X 5 s s s s s s s s s s s s s s s s s s s s s s s s s s s s s s s s s s s s s s s s s s s s s s s s s s s s s s s s s s s s 5 X                 ",
"                - s s s s s s s s s s s s s s s s s s s s s s s s s s s s s s s s s s s s s s s s s s s s s s s s s s s s s s s s s s s s s s A                 ",
"              X 5 s s s s s s s s s s s s s s s s s s s s s s s s s s s s s s s s s s s s s s s s s s s s s s s s s s s s s s s s s s s s s s 5 +.              ",
"              M s s s s s s s s s s s s s s s s s s s s s s s s s s s s s s s s s s s s s s s s s s s s s s s s s s s s s s s s s s s s s s s s M               ",
"            S s s s s s s s s s s s s s s s s s s s s s s s s s s s s s s s s s s s s s s s s s s s s s s s s s s s s s s s s s s s s s s s s s s S             ",
"            5 s s s s s s s s s s s s s s s s s s s s s s s s s s s s s s s s s s s s s s s s s s s s s s s s s s s s s s s s s s s s s s s s s s 5             ",
"          S s s s s s s s s s s s s s s s s s s s s s s s s s s s s s s s s s s s s s s s s s s s s s s s s s s s s s s s s s s s s s s s s s s s s S           ",
"        -.5 s s s s s s s s s s s s s s s s s s s s s s s s s s s s s s s s s s s s s s s s s s s s s s s s s s s s s s s s s s s s s s s s s s s s 5 %.        ",
"        - s s s s s s s s s s s s s s s s s s s s s s s s s s s s s s s s s s s s s s s s s s s s s s s s s s s s s s s s s s s s s s s s s s s s s s -         ",
"      ( 5 s s s s s s s s s s s s s s s s s s s s s s s s s s s s s s s s s s s s s s s s s s s s s s s s s s s s s s s s s s s s s s s s s s s s s s 5 (       ",
"      - s s s s s s s s s s s s s s s s s s s s s s s s s s s s s s s s s s s s s s s s s s s s s s s s s s s s s s s s s s s s s s s s s s s s s s s s M       ",
"    X 5 5 5 5 5 5 5 5 5 5 5 5 5 5 5 5 5 5 5 5 5 5 5 5 5 5 5 5 5 5 5 5 5 5 5 5 5 5 5 5 5 5 5 5 5 5 5 5 5 5 5 5 5 5 5 5 5 5 5 5 5 5 5 5 5 5 5 5 5 5 5 5 5 5 S     ",
"    7.>.6.>.>.>.$.3.>.>.3.>.>.$.>.$.>.>.3.>.3.>.$.3.>.3.3.>.>.$.>.>.>.$.>.>.3.>.>.3.>.3.>.>.$.>.$.>.>.$.>.3.3.$.>.>.>.3.>.>.$.>.$.>.$.>.>.3.3.>.3.$.>.>.>.5.    ",
"                                                                                                                                                                "
};
